<?xml version="1.0" standalone="no"?><!DOCTYPE svg PUBLIC "-//W3C//DTD SVG 1.1//EN"
        "http://www.w3.org/Graphics/SVG/1.1/DTD/svg11.dtd">
<svg t="1526658260564" class="icon" style="" viewBox="0 0 1024 1024" version="1.1" xmlns="http://www.w3.org/2000/svg"
     p-id="7374" xmlns:xlink="http://www.w3.org/1999/xlink" width="200" height="200">
    <defs>
        <style type="text/css"></style>
    </defs>
    <path d="M694.815232 475.46368q0-105.70752-75.138048-180.845568t-180.845568-75.138048-180.845568 75.138048-75.138048 180.845568 75.138048 180.845568 180.845568 75.138048 180.845568-75.138048 75.138048-180.845568zm292.552704 475.398144q0 29.712384-21.712896 51.42528t-51.42528 21.712896q-30.855168 0-51.42528-21.712896l-195.987456-195.416064q-102.279168 70.852608-227.985408 70.852608-81.709056 0-156.275712-31.712256t-128.5632-85.7088-85.7088-128.5632-31.712256-156.275712 31.712256-156.275712 85.7088-128.5632 128.5632-85.7088 156.275712-31.712256 156.275712 31.712256 128.5632 85.7088 85.7088 128.5632 31.712256 156.275712q0 125.70624-70.852608 227.985408l195.987456 195.987456q21.141504 21.141504 21.141504 51.42528z"
          p-id="7375"></path>
</svg>